<svg xmlns="http://www.w3.org/2000/svg" viewBox="0 0 4268.44 6482.32"><defs><clipPath id="background-home_svg__clip-path"><path class="background-home_svg__cls-1" d="M3760.54 1777.37C3727.32 1475 882.69 764.58 662 938.9s31.72 2479.75 282.74 2581.89c37.07 15.05 125.19-5.79 248.4-53.09 711.94-273.18 2595.64-1432.48 2567.4-1690.33z"/></clipPath><clipPath id="background-home_svg__clip-path-2"><path class="background-home_svg__cls-1" d="M940.34 3398c-92.72 224.34 1190 2056.44 1436.55 2051.71 36.38-.73 96.3-49.67 171.55-133.24 434.8-482.78 1380.26-2124.15 1236.79-2329C3616.94 2747.19 1033 3173.59 940.34 3398z"/></clipPath><clipPath id="background-home_svg__clip-path-3"><path class="background-home_svg__cls-1" d="M657.33 5193.77c-24 209.36 2009.58 1024.29 2204.54 931.56s378.31-1689.11 205.26-1787.84c-25.56-14.55-95.5-10.67-196.25 7.09-582.08 102.58-2193.06 670.64-2213.55 849.19z"/></clipPath><style>.background-home_svg__cls-1{fill:none;clip-rule:evenodd}</style></defs><g id="background-home_svg__Layer_2" data-name="Layer 2"><g id="background-home_svg__background-home-2"><g clip-path="url(#background-home_svg__clip-path)"><path transform="rotate(-21 2002.256 1789.164)" fill="#fbc02d" d="M349.7 507.07h3305.11v2564.2H349.7z"/></g><g clip-path="url(#background-home_svg__clip-path-2)"><path transform="rotate(-48 2399.927 3626.981)" fill="#ff8a65" d="M991.11 2381.14h2817.63v2491.69H991.11z"/></g><g clip-path="url(#background-home_svg__clip-path-3)"><path transform="rotate(-10 1987.403 5390.976)" fill="#ffa208" d="M705.37 4508.89h2564.11v1764.2H705.37z"/></g></g></g></svg>